<?xml version="1.0" encoding="utf-8"?>
<!-- Generator: Adobe Illustrator 21.0.0, SVG Export Plug-In . SVG Version: 6.00 Build 0)  -->
<svg version="1.1" id="图层_1" xmlns="http://www.w3.org/2000/svg" xmlns:xlink="http://www.w3.org/1999/xlink" x="0px" y="0px"
	 viewBox="0 0 478 223" style="enable-background:new 0 0 478 223;" xml:space="preserve">
<style type="text/css">
	.st0{fill:#EFEFEF;}
	.st1{fill:none;stroke:#FFFFFF;stroke-miterlimit:10;}
	.st2{clip-path:url(#SVGID_2_);fill:#FFFFFF;}
	.st3{clip-path:url(#SVGID_2_);fill:none;stroke:#000000;stroke-width:0.75;stroke-miterlimit:10;}
	.st4{clip-path:url(#SVGID_2_);fill:#F7E976;}
	.st5{clip-path:url(#SVGID_2_);fill:none;stroke:#070606;stroke-miterlimit:10;}
	.st6{clip-path:url(#SVGID_2_);fill:#EF8671;}
	.st7{clip-path:url(#SVGID_2_);fill:#A91E2C;}
	.st8{font-family:'ArialMT';}
	.st9{font-size:11.3865px;}
	.st10{clip-path:url(#SVGID_4_);fill:none;stroke:#00A0E9;stroke-linecap:round;stroke-linejoin:round;stroke-miterlimit:10;}
	.st11{clip-path:url(#SVGID_4_);fill:none;stroke:#2C4388;stroke-linecap:round;stroke-linejoin:round;stroke-miterlimit:10;}
	.st12{clip-path:url(#SVGID_4_);fill:none;stroke:#040000;stroke-linecap:round;stroke-linejoin:round;stroke-miterlimit:10;}
	.st13{clip-path:url(#SVGID_4_);fill:none;stroke:#E60012;stroke-linecap:round;stroke-linejoin:round;stroke-miterlimit:10;}
	.st14{clip-path:url(#SVGID_4_);fill-rule:evenodd;clip-rule:evenodd;}
	.st15{clip-path:url(#SVGID_4_);}
	.st16{clip-path:url(#SVGID_6_);fill-rule:evenodd;clip-rule:evenodd;}
	.st17{clip-path:url(#SVGID_6_);}
	.st18{clip-path:url(#SVGID_12_);fill-rule:evenodd;clip-rule:evenodd;}
	.st19{clip-path:url(#SVGID_12_);}
	.st20{fill:#F7F5F5;}
	.st21{fill:#070606;}
	.st22{font-size:10.3514px;}
	.st23{clip-path:url(#SVGID_14_);fill-rule:evenodd;clip-rule:evenodd;}
	.st24{clip-path:url(#SVGID_14_);fill:#273F7B;}
	.st25{clip-path:url(#SVGID_14_);fill:none;stroke:#070606;stroke-miterlimit:10;}
	.st26{clip-path:url(#SVGID_14_);fill:#58C0D8;}
	.st27{fill:#F9F7F7;}
	.st28{fill:#040000;}
	.st29{clip-path:url(#SVGID_16_);fill:none;stroke:#040000;stroke-linecap:round;stroke-linejoin:round;stroke-miterlimit:10;}
	.st30{clip-path:url(#SVGID_16_);fill:none;stroke:#000000;stroke-linecap:round;stroke-linejoin:round;stroke-miterlimit:10;}
	.st31{clip-path:url(#SVGID_16_);fill:none;stroke:#000000;stroke-width:0.75;stroke-miterlimit:10;}
	.st32{clip-path:url(#SVGID_16_);fill-rule:evenodd;clip-rule:evenodd;}
	.st33{clip-path:url(#SVGID_16_);}
	.st34{font-size:16.1373px;}
	.st35{clip-path:url(#SVGID_24_);fill-rule:evenodd;clip-rule:evenodd;}
	.st36{clip-path:url(#SVGID_24_);}
	.st37{clip-path:url(#SVGID_34_);fill:none;stroke:#35AC37;stroke-linecap:round;stroke-linejoin:round;stroke-miterlimit:10;}
</style>
<polygon class="st0" points="229.5,112.2 229.2,72.6 344.9,72.6 345.2,218.1 7.5,218.5 7.5,112.7 "/>
<polygon class="st1" points="229.5,112.2 229.2,72.6 344.9,72.6 345.2,218.1 7.5,218.5 7.5,112.7 "/>
<polygon class="st0" points="350.9,69 232.6,69.5 232.6,26.7 469.2,26.2 469,216.6 350.8,216.6 "/>
<g>
	<defs>
		<rect id="SVGID_1_" x="-53" y="-337.9" width="595.3" height="841.9"/>
	</defs>
	<clipPath id="SVGID_2_">
		<use xlink:href="#SVGID_1_"  style="overflow:visible;"/>
	</clipPath>
	<path class="st2" d="M378.1,207.8h66.7c3.8,0,6.8-3.1,6.8-6.8v-17.8c0-3.8-3.1-6.8-6.8-6.8h-66.7c-3.8,0-6.8,3.1-6.8,6.8V201
		C371.3,204.8,374.4,207.8,378.1,207.8"/>
	<path class="st3" d="M378.1,207.8h66.7c3.8,0,6.8-3.1,6.8-6.8v-17.8c0-3.8-3.1-6.8-6.8-6.8h-66.7c-3.8,0-6.8,3.1-6.8,6.8V201
		C371.3,204.8,374.4,207.8,378.1,207.8z"/>
	<path class="st2" d="M252.7,63.6h81.9c3.8,0,6.8-3.1,6.8-6.8V39c0-3.8-3.1-6.8-6.8-6.8h-81.9c-3.8,0-6.8,3.1-6.8,6.8v17.8
		C245.9,60.6,249,63.6,252.7,63.6"/>
	<path class="st3" d="M252.7,63.6h81.9c3.8,0,6.8-3.1,6.8-6.8V39c0-3.8-3.1-6.8-6.8-6.8h-81.9c-3.8,0-6.8,3.1-6.8,6.8v17.8
		C245.9,60.6,249,63.6,252.7,63.6z"/>
	<path class="st2" d="M377.1,62.2h58.4c3.8,0,6.8-3.1,6.8-6.8V37.5c0-3.8-3.1-6.8-6.8-6.8h-58.4c-3.8,0-6.8,3.1-6.8,6.8v17.8
		C370.3,59.1,373.4,62.2,377.1,62.2"/>
	<path class="st3" d="M377.1,62.2h58.4c3.8,0,6.8-3.1,6.8-6.8V37.5c0-3.8-3.1-6.8-6.8-6.8h-58.4c-3.8,0-6.8,3.1-6.8,6.8v17.8
		C370.3,59.1,373.4,62.2,377.1,62.2z"/>
	<path class="st4" d="M394,114.7c2.4,0,4.4,3.7,4.4,8.1v14.7c0,4.5-2,8.1-4.4,8.1h-32.9c-2.4,0-4.4-3.7-4.4-8.1v-14.7
		c0-4.5,2-8.1,4.4-8.1"/>
	<path class="st5" d="M394,114.7c2.4,0,4.4,3.7,4.4,8.1v14.7c0,4.5-2,8.1-4.4,8.1h-32.9c-2.4,0-4.4-3.7-4.4-8.1v-14.7
		c0-4.5,2-8.1,4.4-8.1"/>
	<path class="st6" d="M394,114.7c2.4,0,4.4-3.7,4.4-8.2V91.6c0-4.5-2-8.2-4.4-8.2h-32.9c-2.4,0-4.4,3.7-4.4,8.2v14.9
		c0,4.5,2,8.2,4.4,8.2"/>
	<path class="st5" d="M394,114.7c2.4,0,4.4-3.7,4.4-8.2V91.6c0-4.5-2-8.2-4.4-8.2h-32.9c-2.4,0-4.4,3.7-4.4,8.2v14.9
		c0,4.5,2,8.2,4.4,8.2"/>
	<path class="st7" d="M457.2,92.3v38.4c0,2.8-2.3,5.1-5,5.1h-31.7c-2.8,0-5-2.3-5-5.1V92.3c0-2.8,2.3-5,5-5h31.7
		C454.9,87.2,457.2,89.5,457.2,92.3"/>
	<path class="st5" d="M457.2,92.3v38.4c0,2.8-2.3,5.1-5,5.1h-31.7c-2.8,0-5-2.3-5-5.1V92.3c0-2.8,2.3-5,5-5h31.7
		C454.9,87.2,457.2,89.5,457.2,92.3z"/>
	<path class="st2" d="M22.7,50.6h68.6c2.6,0,4.8-2.2,4.8-4.8V24.9c0-2.6-2.2-4.8-4.8-4.8H22.7c-2.6,0-4.8,2.2-4.8,4.8v20.9
		C17.9,48.5,20.1,50.6,22.7,50.6"/>
	<path class="st3" d="M22.7,50.6h68.6c2.6,0,4.8-2.2,4.8-4.8V24.9c0-2.6-2.2-4.8-4.8-4.8H22.7c-2.6,0-4.8,2.2-4.8,4.8v20.9
		C17.9,48.5,20.1,50.6,22.7,50.6z"/>
</g>
<text transform="matrix(1 0 0 1 20.8608 33.582)" class="st8 st9">Resequencing </text>
<text transform="matrix(1 0 0 1 46.8223 47.2456)" class="st8 st9">Data</text>
<g>
	<defs>
		<rect id="SVGID_3_" x="-53" y="-337.9" width="595.3" height="841.9"/>
	</defs>
	<clipPath id="SVGID_4_">
		<use xlink:href="#SVGID_3_"  style="overflow:visible;"/>
	</clipPath>
	<path class="st10" d="M250.2,185.8c3.4,0,5.2-1.5,6.2-4.5c0.7-2.3,1.3-4.8,2.3-7.5c1.8-4.7,5.1-22.3,8.6-18.1c0.9,1,1.4,2.9,2,4.7
		c1.1,3.7,2.1,7.4,3.2,11c0.9,3.1,1.8,6.3,3.1,8.7c1.7,3.2,4,4.8,6.2,5.4c1.2,0.3,2.5,0.4,3.7,0.3"/>
	<path class="st11" d="M265.8,185.6c1.8,0,3.6,0.1,5.3,0c2.8-0.2,5.5-0.7,7.7-2.6c1.5-1.2,2.6-3,3.7-4.6c1.7-2.7,5.8-20.2,10.4-17.6
		c1.1,0.6,3.8,7.2,4.3,8.4c0.9,2.2,1.2,5.6,2.6,7.8c1.2,1.9,2.3,3.8,4,5.3c2.2,1.9,5.1,2.9,8.1,3.3c1.6,0.2,3.2,0.3,4.8,0.2"/>
	<line class="st12" x1="247.2" y1="187.1" x2="328" y2="187.1"/>
	<line class="st12" x1="247.2" y1="149.2" x2="247.2" y2="187.6"/>
	<line class="st13" x1="278.5" y1="148.7" x2="278.3" y2="186.4"/>
	<polygon class="st14" points="54.4,56.9 53.7,56.9 53.7,58 54.4,57.9 	"/>
	
		<rect x="53.6" y="54.9" transform="matrix(1 -8.015693e-03 8.015693e-03 1 -0.4427 0.4348)" class="st14" width="0.8" height="1.1"/>
	
		<rect x="53.6" y="52.9" transform="matrix(1 -8.015693e-03 8.015693e-03 1 -0.427 0.4346)" class="st14" width="0.8" height="1.1"/>
	
		<rect x="53.7" y="62.7" transform="matrix(0.9999 -1.070088e-02 1.070088e-02 0.9999 -0.6742 0.5825)" class="st14" width="0.8" height="1.1"/>
	
		<rect x="53.7" y="60.8" transform="matrix(1 -9.358314e-03 9.358314e-03 1 -0.5716 0.5087)" class="st14" width="0.8" height="1.1"/>
	
		<rect x="53.7" y="58.8" transform="matrix(1 -9.358314e-03 9.358314e-03 1 -0.5533 0.5084)" class="st14" width="0.8" height="1.1"/>
	<rect x="53.7" y="68.6" class="st14" width="0.8" height="1.1"/>
	
		<rect x="53.7" y="66.7" transform="matrix(1 -2.685537e-03 2.685537e-03 1 -0.1803 0.1456)" class="st14" width="0.8" height="1.1"/>
	<polygon class="st14" points="54.5,64.7 53.7,64.7 53.7,65.8 54.5,65.8 	"/>
	<polygon class="st15" points="52.2,69.6 54.2,73 56.2,69.6 	"/>
</g>
<text transform="matrix(1 0 0 1 247.3174 44.5127)"><tspan x="0" y="0" class="st8 st9">Calculate</tspan><tspan x="47.5" y="0" class="st8 st9"> </tspan><tspan x="50" y="0" class="st8 st9">A</tspan><tspan x="57.4" y="0" class="st8 st9">verage</tspan></text>
<text transform="matrix(1 0 0 1 247.2148 58.1763)" class="st8 st9">Coverages in Bins</text>
<text transform="matrix(1 0 0 1 377.2832 43.4766)" class="st8 st9">Identify the </text>
<text transform="matrix(1 0 0 1 372.2275 57.1401)" class="st8 st9">CNV Regions</text>
<text transform="matrix(1 0 0 1 378.6719 189.4629)" class="st8 st9">Exclude the</text>
<text transform="matrix(1 0 0 1 378.6719 203.127)" class="st8 st9">CNV regions</text>
<text transform="matrix(1 0 0 1 43.2939 85.1855)" class="st8 st9">Align to</text>
<text transform="matrix(1 0 0 1 11.6626 98.8486)" class="st8 st9">IWGSC RefSeqv1.0</text>
<text transform="matrix(1 0 0 1 156.9199 88.2939)"><tspan x="0" y="0" class="st8 st9">V</tspan><tspan x="6.8" y="0" class="st8 st9">ariant </tspan></text>
<text transform="matrix(1 0 0 1 158.7192 101.957)" class="st8 st9">Calling</text>
<text transform="matrix(1 0 0 1 237.2744 90.5938)" class="st8 st9">Calculate Pairwise</text>
<text transform="matrix(1 0 0 1 241.7041 104.2578)" class="st8 st9"> Distance in Bins</text>
<text transform="matrix(1 0 0 1 148.2095 189.4629)" class="st8 st9">Identify PHRs </text>
<text transform="matrix(1 0 0 1 158.332 203.127)" class="st8 st9">and GSRs</text>
<text transform="matrix(1 0 0 1 165.5396 139.2373)" class="st8 st9">HMM </text>
<text transform="matrix(1 0 0 1 153.5039 152.9004)" class="st8 st9">Smoothing</text>
<g>
	<defs>
		<rect id="SVGID_5_" x="-53" y="-337.9" width="595.3" height="841.9"/>
	</defs>
	<clipPath id="SVGID_6_">
		<use xlink:href="#SVGID_5_"  style="overflow:visible;"/>
	</clipPath>
	<path class="st16" d="M124.1,83.2l0.7,0.3c0.2-0.4,0.4-0.8,0.5-1.2l-0.7-0.3C124.5,82.4,124.3,82.8,124.1,83.2"/>
	<path class="st16" d="M123.1,85.2l0.6,0.4c0.3-0.4,0.5-0.8,0.7-1.2l-0.7-0.3C123.5,84.5,123.3,84.8,123.1,85.2"/>
	<path class="st16" d="M121.6,86.8l0.4,0.6c0.2-0.1,0.4-0.3,0.6-0.4c0.2-0.2,0.4-0.3,0.5-0.5l-0.6-0.5c-0.1,0.2-0.3,0.3-0.4,0.4
		C121.9,86.5,121.8,86.7,121.6,86.8"/>
	<polygon class="st16" points="126.4,76.6 127.1,76.9 127.5,75.6 126.8,75.4 	"/>
	<path class="st16" d="M125.7,78.9l0.7,0.2c0.1-0.4,0.3-0.8,0.4-1.2l-0.7-0.2C126,78,125.9,78.4,125.7,78.9"/>
	<polygon class="st16" points="125,81 125.7,81.3 126.1,80.1 125.4,79.8 	"/>
	
		<rect x="128.1" y="69" transform="matrix(0.2479 -0.9688 0.9688 0.2479 29.5971 176.9219)" class="st16" width="1.3" height="0.8"/>
	<polygon class="st16" points="127.6,72.2 128.4,72.4 128.7,71.1 128,70.9 	"/>
	<polygon class="st16" points="127,74.4 127.8,74.6 128.1,73.3 127.4,73.2 	"/>
	<polygon class="st16" points="130,63.2 130.7,63.4 131,62.1 130.3,61.9 	"/>
	
		<rect x="129.2" y="64.5" transform="matrix(0.2494 -0.9684 0.9684 0.2494 34.6417 174.501)" class="st16" width="1.3" height="0.7"/>
	
		<rect x="128.7" y="66.8" transform="matrix(0.2479 -0.9688 0.9688 0.2479 32.2213 175.7808)" class="st16" width="1.3" height="0.8"/>
	<polygon class="st16" points="131.9,56.5 132.6,56.7 133,55.5 132.3,55.3 	"/>
	<polygon class="st16" points="131.2,58.7 131.9,58.9 132.3,57.7 131.6,57.5 	"/>
	<polygon class="st16" points="130.6,60.9 131.3,61.1 131.6,59.9 130.9,59.7 	"/>
	<polygon class="st16" points="134.3,49.9 134.9,50.2 135.5,49.1 134.8,48.7 	"/>
	<path class="st16" d="M133.4,52.1l0.7,0.3c0.1-0.4,0.3-0.8,0.5-1.2l-0.7-0.3C133.7,51.3,133.5,51.7,133.4,52.1"/>
	<path class="st16" d="M132.6,54.3l0.7,0.2c0.1-0.4,0.3-0.8,0.4-1.2L133,53C132.9,53.4,132.7,53.9,132.6,54.3"/>
	<path class="st16" d="M138,44l0.5,0.5c0.3-0.3,0.6-0.6,0.9-0.8l-0.4-0.6C138.6,43.3,138.3,43.7,138,44"/>
	<path class="st16" d="M136.5,45.8l0.6,0.4c0.2-0.3,0.5-0.7,0.7-1l-0.6-0.5C137,45.1,136.7,45.4,136.5,45.8"/>
	<path class="st16" d="M135.3,47.8l0.7,0.4c0.2-0.4,0.4-0.7,0.6-1.1l-0.6-0.4C135.7,47,135.5,47.4,135.3,47.8"/>
	<polygon class="st17" points="139.3,44.9 139.1,43.3 137.8,42.3 141.6,41.8 	"/>
	<polygon class="st16" points="284.3,116.3 283.6,116.3 283.6,117.5 284.3,117.5 	"/>
	
		<rect x="283.6" y="114.1" transform="matrix(1 -9.358314e-03 9.358314e-03 1 -1.0614 2.6623)" class="st16" width="0.8" height="1.2"/>
	
		<rect x="283.5" y="112" transform="matrix(0.9999 -1.070088e-02 1.070088e-02 0.9999 -1.1886 3.0447)" class="st16" width="0.8" height="1.2"/>
	<polygon class="st16" points="284.4,122.8 283.6,122.8 283.6,124 284.4,124 	"/>
	<polygon class="st16" points="284.4,120.6 283.6,120.6 283.6,121.8 284.4,121.8 	"/>
	<polygon class="st16" points="284.4,118.5 283.6,118.5 283.6,119.7 284.4,119.7 	"/>
	<polygon class="st16" points="284.4,129.3 283.7,129.3 283.7,130.5 284.5,130.5 	"/>
	<polygon class="st16" points="284.4,127.1 283.7,127.1 283.7,128.3 284.4,128.3 	"/>
	<polygon class="st16" points="284.4,125 283.7,125 283.7,126.2 284.4,126.2 	"/>
	<polygon class="st16" points="284.5,135.8 283.8,135.8 283.8,137 284.5,137 	"/>
	<polygon class="st16" points="284.5,133.6 283.7,133.6 283.7,134.8 284.5,134.8 	"/>
	<polygon class="st16" points="284.5,131.4 283.7,131.4 283.7,132.6 284.5,132.6 	"/>
	<polygon class="st17" points="282.7,136.3 284.2,136.9 285.7,136.3 284.3,139.8 	"/>
</g>
<g>
	<defs>
		<rect id="SVGID_7_" x="-53" y="-337.9" width="595.3" height="841.9"/>
	</defs>
	<clipPath id="SVGID_8_">
		<use xlink:href="#SVGID_7_"  style="overflow:visible;"/>
	</clipPath>
</g>
<g>
	<defs>
		<rect id="SVGID_9_" x="-53" y="-337.9" width="595.3" height="841.9"/>
	</defs>
	<clipPath id="SVGID_10_">
		<use xlink:href="#SVGID_9_"  style="overflow:visible;"/>
	</clipPath>
</g>
<g>
	<defs>
		<rect id="SVGID_11_" x="-53" y="-337.9" width="595.3" height="841.9"/>
	</defs>
	<clipPath id="SVGID_12_">
		<use xlink:href="#SVGID_11_"  style="overflow:visible;"/>
	</clipPath>
	<path class="st18" d="M413.2,66.1l-0.6,0.4c0.2,0.4,0.5,0.7,0.8,1.1l0.6-0.5C413.7,66.8,413.5,66.4,413.2,66.1"/>
	<path class="st18" d="M412.2,64.1l-0.7,0.3c0.1,0.4,0.3,0.8,0.5,1.2l0.7-0.4C412.5,64.9,412.3,64.5,412.2,64.1"/>
	<path class="st18" d="M411.8,62l-0.7,0c0,0.4,0.1,0.9,0.2,1.3l0.7-0.2C411.8,62.8,411.8,62.4,411.8,62"/>
	<polygon class="st18" points="418,70.8 417.5,71.4 418.6,72.2 419,71.6 	"/>
	<path class="st18" d="M416.2,69.4l-0.5,0.6c0.3,0.3,0.7,0.6,1,0.8l0.5-0.6C416.9,69.9,416.6,69.7,416.2,69.4"/>
	<path class="st18" d="M414.6,67.8l-0.5,0.5c0.3,0.3,0.6,0.6,0.9,0.9l0.5-0.5C415.2,68.5,414.9,68.1,414.6,67.8"/>
	<polygon class="st18" points="423.6,74.7 423.2,75.3 424.2,76 424.7,75.4 	"/>
	
		<rect x="421.7" y="73.4" transform="matrix(0.5547 -0.8321 0.8321 0.5547 126.3009 384.144)" class="st18" width="0.7" height="1.3"/>
	<polygon class="st18" points="419.8,72.1 419.4,72.8 420.5,73.5 420.9,72.9 	"/>
	<path class="st18" d="M429,78.9l-0.5,0.5c0.3,0.3,0.5,0.6,0.8,0.9l0.6-0.4C429.6,79.5,429.3,79.2,429,78.9"/>
	<path class="st18" d="M427.3,77.3l-0.5,0.6c0.3,0.3,0.6,0.5,0.9,0.8l0.5-0.6C428,77.9,427.7,77.6,427.3,77.3"/>
	<polygon class="st18" points="425.5,76 425.1,76.6 426.1,77.3 426.5,76.7 	"/>
	<polygon class="st19" points="428.1,79.9 429.7,80 430.9,78.9 430.7,82.7 	"/>
</g>
<text transform="matrix(1 0 0 1 417.9434 100.9639)" class="st20 st8 st9">Shared</text>
<text transform="matrix(1 0 0 1 424.2861 114.6279)" class="st20 st8 st9">CNV</text>
<text transform="matrix(1 0 0 1 418.2617 128.291)" class="st20 st8 st9">Region</text>
<text transform="matrix(1 0 0 1 359.4033 97.4814)" class="st21 st8 st22">Sample</text>
<text transform="matrix(1 0 0 1 358.834 109.9033)" class="st21 st8 st22">Specific</text>
<text transform="matrix(1 0 0 1 366.0283 122.3252)" class="st21 st8 st22">CNV</text>
<text transform="matrix(1 0 0 1 360.5527 134.7461)" class="st21 st8 st22">Region</text>
<g>
	<defs>
		<rect id="SVGID_13_" x="-53" y="-337.9" width="595.3" height="841.9"/>
	</defs>
	<clipPath id="SVGID_14_">
		<use xlink:href="#SVGID_13_"  style="overflow:visible;"/>
	</clipPath>
	<path class="st23" d="M432.7,142.8l-0.7-0.3c-0.1,0.3-0.4,0.7-0.6,1l0.6,0.4C432.3,143.6,432.6,143.2,432.7,142.8"/>
	<polygon class="st23" points="433.4,140.7 432.7,140.6 432.4,141.7 433.1,141.9 	"/>
	<path class="st23" d="M433.7,138.5l-0.8,0c0,0.4,0,0.8-0.1,1.2l0.7,0.1C433.7,139.4,433.6,139,433.7,138.5"/>
	<path class="st23" d="M428.1,147.5l-0.4-0.7c-0.3,0.2-0.7,0.4-1,0.5l0.3,0.7C427.3,147.8,427.7,147.7,428.1,147.5"/>
	<path class="st23" d="M429.9,146.3l-0.5-0.6c-0.3,0.2-0.6,0.4-0.9,0.7l0.4,0.6C429.2,146.7,429.6,146.5,429.9,146.3"/>
	<path class="st23" d="M431.5,144.7l-0.6-0.5c-0.2,0.3-0.5,0.6-0.8,0.8l0.5,0.5C430.9,145.3,431.2,145.1,431.5,144.7"/>
	
		<rect x="420.8" y="149.5" transform="matrix(0.9399 -0.3413 0.3413 0.9399 -25.8566 152.8255)" class="st23" width="1.2" height="0.7"/>
	<polygon class="st23" points="424.1,149.3 423.8,148.6 422.7,149 423,149.7 	"/>
	<path class="st23" d="M426.1,148.5l-0.3-0.7c-0.4,0.2-0.7,0.3-1.1,0.5l0.3,0.7C425.4,148.8,425.7,148.6,426.1,148.5"/>
	<path class="st23" d="M416.1,152.5l-0.3-0.7c-0.4,0.2-0.7,0.4-1.1,0.6l0.4,0.6C415.3,152.8,415.7,152.6,416.1,152.5"/>
	<path class="st23" d="M418,151.6l-0.3-0.7c-0.4,0.1-0.7,0.3-1.1,0.5l0.3,0.7C417.3,151.9,417.6,151.7,418,151.6"/>
	<polygon class="st23" points="420,150.8 419.7,150.1 418.6,150.5 418.9,151.2 	"/>
	<polygon class="st23" points="411.1,156.4 410.5,155.9 409.8,156.9 410.4,157.3 	"/>
	<path class="st23" d="M412.5,154.8l-0.5-0.6c-0.3,0.3-0.6,0.6-0.9,0.9l0.6,0.5C411.9,155.3,412.2,155.1,412.5,154.8"/>
	<path class="st23" d="M414.2,153.5l-0.4-0.6c-0.3,0.2-0.7,0.4-1,0.7l0.5,0.6C413.5,154,413.9,153.8,414.2,153.5"/>
	<path class="st23" d="M408.9,162.2l-0.7-0.1c0,0.4,0,0.8-0.1,1.2l0.8,0C408.8,163,408.8,162.6,408.9,162.2"/>
	<path class="st23" d="M409.3,160.2l-0.7-0.2c-0.1,0.4-0.2,0.8-0.3,1.2l0.7,0.1C409,160.9,409.2,160.5,409.3,160.2"/>
	<path class="st23" d="M410,158.2l-0.7-0.3c-0.2,0.4-0.3,0.8-0.5,1.2l0.7,0.2C409.7,158.9,409.8,158.5,410,158.2"/>
	<path class="st24" d="M102.7,161.8H16.3c-2.8,0-5.1-2.3-5.1-5v-32.5c0-2.8,2.3-5,5.1-5h86.4c2.8,0,5,2.3,5,5v32.5
		C107.8,159.6,105.5,161.8,102.7,161.8"/>
	<path class="st25" d="M102.7,161.8H16.3c-2.8,0-5.1-2.3-5.1-5v-32.5c0-2.8,2.3-5,5.1-5h86.4c2.8,0,5,2.3,5,5v32.5
		C107.8,159.6,105.5,161.8,102.7,161.8z"/>
	<path class="st26" d="M102.7,214.7H16.3c-2.8,0-5.1-2.3-5.1-5v-30.3c0-2.8,2.3-5.1,5.1-5.1h86.4c2.8,0,5,2.3,5,5.1v30.3
		C107.8,212.5,105.5,214.7,102.7,214.7"/>
	<path class="st25" d="M102.7,214.7H16.3c-2.8,0-5.1-2.3-5.1-5v-30.3c0-2.8,2.3-5.1,5.1-5.1h86.4c2.8,0,5,2.3,5,5.1v30.3
		C107.8,212.5,105.5,214.7,102.7,214.7z"/>
</g>
<text transform="matrix(1 0 0 1 24.4077 129.7422)" class="st27 st8 st9">Polymorphism </text>
<text transform="matrix(1 0 0 1 42.4326 143.4063)" class="st27 st8 st9">Hotspot</text>
<text transform="matrix(1 0 0 1 19.3408 157.0693)" class="st27 st8 st9">Regions (PHRs) </text>
<text transform="matrix(1 0 0 1 12.6909 187.2441)" class="st28 st8 st9">Shared Genomics </text>
<text transform="matrix(1 0 0 1 13.0098 200.9082)" class="st28 st8 st9">Resource Regions</text>
<g>
	<defs>
		<rect id="SVGID_15_" x="-53" y="-337.9" width="595.3" height="841.9"/>
	</defs>
	<clipPath id="SVGID_16_">
		<use xlink:href="#SVGID_15_"  style="overflow:visible;"/>
	</clipPath>
	<line class="st29" x1="144.5" y1="54.6" x2="220.6" y2="54.6"/>
	<line class="st30" x1="167.6" y1="32.5" x2="169.1" y2="32.5"/>
	<line class="st30" x1="168.4" y1="37.5" x2="170" y2="37.5"/>
	<line class="st30" x1="161.2" y1="32.5" x2="162.8" y2="32.5"/>
	<line class="st30" x1="164.7" y1="32.5" x2="166.2" y2="32.5"/>
	<line class="st30" x1="146.8" y1="32.5" x2="148.3" y2="32.5"/>
	<line class="st30" x1="155.9" y1="32.5" x2="157.5" y2="32.5"/>
	<line class="st30" x1="155.1" y1="37.5" x2="156.7" y2="37.5"/>
	<line class="st30" x1="149.6" y1="32.5" x2="151.1" y2="32.5"/>
	<line class="st30" x1="152.7" y1="32.5" x2="154.2" y2="32.5"/>
	<line class="st30" x1="183.3" y1="32.5" x2="184.9" y2="32.5"/>
	<line class="st30" x1="192.2" y1="32.5" x2="193.8" y2="32.5"/>
	<line class="st30" x1="190.9" y1="37.5" x2="192.5" y2="37.5"/>
	<line class="st30" x1="186.1" y1="32.5" x2="187.7" y2="32.5"/>
	<line class="st30" x1="189.2" y1="32.5" x2="190.8" y2="32.5"/>
	<line class="st30" x1="172.1" y1="32.5" x2="173.7" y2="32.5"/>
	<line class="st30" x1="180.6" y1="32.5" x2="182.1" y2="32.5"/>
	<line class="st30" x1="179.5" y1="37.5" x2="181.1" y2="37.5"/>
	<line class="st30" x1="175.2" y1="32.5" x2="176.7" y2="32.5"/>
	<line class="st30" x1="177.6" y1="32.5" x2="179.2" y2="32.5"/>
	<line class="st30" x1="207.2" y1="32.5" x2="208.7" y2="32.5"/>
	<line class="st30" x1="210.4" y1="32.5" x2="211.9" y2="32.5"/>
	<line class="st30" x1="213.3" y1="32.5" x2="214.9" y2="32.5"/>
	<line class="st30" x1="195.3" y1="32.5" x2="196.8" y2="32.5"/>
	<line class="st30" x1="204.1" y1="32.5" x2="205.7" y2="32.5"/>
	<line class="st30" x1="206.1" y1="37.5" x2="207.7" y2="37.5"/>
	<line class="st30" x1="198.1" y1="32.5" x2="199.6" y2="32.5"/>
	<line class="st30" x1="201.2" y1="32.5" x2="202.7" y2="32.5"/>
	<line class="st30" x1="144.9" y1="37.5" x2="146.4" y2="37.5"/>
	<line class="st30" x1="148.2" y1="37.5" x2="149.8" y2="37.5"/>
	<line class="st30" x1="151.4" y1="37.5" x2="152.9" y2="37.5"/>
	<line class="st30" x1="167.6" y1="42.5" x2="169.2" y2="42.5"/>
	<line class="st30" x1="166.6" y1="47.4" x2="168.2" y2="47.4"/>
	<line class="st30" x1="160.7" y1="37.5" x2="162.3" y2="37.5"/>
	<line class="st30" x1="163.6" y1="37.5" x2="165.2" y2="37.5"/>
	<line class="st30" x1="171.1" y1="37.5" x2="172.6" y2="37.5"/>
	<line class="st30" x1="173.9" y1="37.5" x2="175.4" y2="37.5"/>
	<line class="st30" x1="177" y1="37.5" x2="178.5" y2="37.5"/>
	<line class="st30" x1="182.2" y1="37.5" x2="183.8" y2="37.5"/>
	<line class="st30" x1="185.1" y1="37.5" x2="186.6" y2="37.5"/>
	<line class="st30" x1="187.9" y1="37.5" x2="189.5" y2="37.5"/>
	<line class="st30" x1="199.6" y1="37.5" x2="201.2" y2="37.5"/>
	<line class="st30" x1="194.2" y1="37.5" x2="195.7" y2="37.5"/>
	<line class="st30" x1="197" y1="37.5" x2="198.6" y2="37.5"/>
	<line class="st30" x1="202.7" y1="37.5" x2="204.3" y2="37.5"/>
	<line class="st30" x1="214.1" y1="37.5" x2="215.6" y2="37.5"/>
	<line class="st30" x1="211.5" y1="37.5" x2="213" y2="37.5"/>
	<line class="st30" x1="208" y1="42.5" x2="209.6" y2="42.5"/>
	<line class="st30" x1="207.1" y1="47.4" x2="208.7" y2="47.4"/>
	<line class="st30" x1="218.7" y1="32.5" x2="220.3" y2="32.5"/>
	<line class="st30" x1="219.4" y1="37.5" x2="220.9" y2="37.5"/>
	<line class="st30" x1="144.2" y1="32.5" x2="145.7" y2="32.5"/>
	<path class="st31" d="M15.9,105.7h93.7c3.6,0,6.6-3,6.6-6.6V81.8c0-3.6-3-6.6-6.6-6.6H15.9c-3.6,0-6.6,3-6.6,6.6v17.3
		C9.3,102.7,12.2,105.7,15.9,105.7z"/>
	<path class="st31" d="M153.1,106.5h45.6c2.6,0,4.8-2.2,4.8-4.8V80.9c0-2.6-2.2-4.8-4.8-4.8h-45.6c-2.6,0-4.8,2.2-4.8,4.8v20.7
		C148.3,104.3,150.5,106.5,153.1,106.5z"/>
	<polygon class="st32" points="226.4,44.9 226.4,45.7 227.6,45.6 227.6,44.9 	"/>
	
		<rect x="224.2" y="44.9" transform="matrix(0.9999 -1.464687e-02 1.464687e-02 0.9999 -0.6394 3.2982)" class="st32" width="1.2" height="0.8"/>
	
		<rect x="222.1" y="45" transform="matrix(0.9999 -1.598917e-02 1.598917e-02 0.9999 -0.6964 3.5662)" class="st32" width="1.2" height="0.8"/>
	<polygon class="st32" points="233,44.8 233,45.6 234.2,45.5 234.2,44.8 	"/>
	<polygon class="st32" points="230.8,44.8 230.8,45.6 232,45.6 232,44.8 	"/>
	<polygon class="st32" points="228.6,44.9 228.6,45.6 229.8,45.6 229.8,44.9 	"/>
	<polygon class="st32" points="239.5,44.7 239.5,45.5 240.8,45.5 240.8,44.7 	"/>
	<polygon class="st32" points="237.4,44.8 237.4,45.5 238.6,45.5 238.6,44.7 	"/>
	<polygon class="st32" points="235.2,44.8 235.2,45.5 236.4,45.5 236.4,44.8 	"/>
	<polygon class="st33" points="240.1,46.5 240.8,45 240.1,43.5 243.6,45 	"/>
	<path class="st31" d="M243.6,109.7h81.5c3.7,0,6.8-3.1,6.8-6.8V85.2c0-3.7-3.1-6.8-6.8-6.8h-82.5c-3.7,0-6.8,3.1-6.8,6.8V102
		C235.8,106.2,239.3,109.7,243.6,109.7z"/>
	<polygon class="st32" points="213.7,89.9 213.7,90.7 214.8,90.6 214.8,89.9 	"/>
	<polygon class="st32" points="211.7,89.9 211.7,90.7 212.8,90.7 212.8,89.9 	"/>
	<polygon class="st32" points="209.7,90 209.7,90.7 210.8,90.7 210.8,90 	"/>
	<polygon class="st32" points="219.7,89.8 219.8,90.6 220.9,90.6 220.9,89.8 	"/>
	<polygon class="st32" points="217.7,89.9 217.7,90.6 218.9,90.6 218.9,89.8 	"/>
	<polygon class="st32" points="215.7,89.9 215.7,90.6 216.9,90.6 216.8,89.9 	"/>
	<polygon class="st32" points="225.8,89.7 225.8,90.5 226.9,90.5 226.9,89.7 	"/>
	<polygon class="st32" points="223.8,89.8 223.8,90.5 224.9,90.5 224.9,89.7 	"/>
	<polygon class="st32" points="221.8,89.8 221.8,90.5 222.9,90.5 222.9,89.8 	"/>
	<polygon class="st33" points="226.2,91.5 226.9,90 226.2,88.5 229.7,90 	"/>
	<polygon class="st32" points="358.9,45.4 359,46.2 360,46.1 360,45.4 	"/>
	<polygon class="st32" points="357.1,45.5 357.1,46.2 358.1,46.2 358.1,45.4 	"/>
	
		<rect x="355.3" y="45.5" transform="matrix(0.9997 -2.530114e-02 2.530114e-02 0.9997 -1.0465 9.0171)" class="st32" width="1" height="0.8"/>
	<polygon class="st32" points="364.4,45.3 364.4,46 365.4,46 365.4,45.2 	"/>
	<polygon class="st32" points="362.6,45.3 362.6,46.1 363.6,46 363.6,45.3 	"/>
	<polygon class="st32" points="360.8,45.4 360.8,46.1 361.8,46.1 361.8,45.3 	"/>
	<polygon class="st33" points="364.7,47 365.3,45.5 364.7,44.1 368.2,45.5 	"/>
	<path class="st31" d="M150.4,207.2h67.4c1.5,0,2.7-1.2,2.7-2.7v-22.3c0-2.2-1.8-4.1-4.1-4.1h-66.2c-2.1,0-3.8,1.7-3.8,3.8v21.3
		C146.5,205.5,148.3,207.2,150.4,207.2z"/>
	<polygon class="st32" points="181.4,169.5 182.1,169.5 182.2,168.4 181.4,168.4 	"/>
	<polygon class="st32" points="181.4,171.5 182.1,171.5 182.1,170.4 181.4,170.4 	"/>
	
		<rect x="181.1" y="172.6" transform="matrix(1.468754e-02 -0.9999 0.9999 1.468754e-02 6.0882 352.1229)" class="st32" width="1.1" height="0.8"/>
	<polygon class="st32" points="181.5,163.5 182.2,163.5 182.2,162.3 181.5,162.3 	"/>
	<polygon class="st32" points="181.4,165.5 182.2,165.5 182.2,164.4 181.5,164.3 	"/>
	<polygon class="st32" points="181.4,167.5 182.2,167.5 182.2,166.4 181.4,166.4 	"/>
	<polygon class="st33" points="183.2,163 181.7,162.4 180.2,163 181.8,159.5 	"/>
	<path class="st31" d="M153,155.4h57.8c1.5,0,2.7-1.2,2.7-2.7v-22.6c0-2.2-1.8-4.1-4.1-4.1h-56.7c-2.1,0-3.8,1.7-3.8,3.8v21.6
		C149.1,153.6,150.9,155.4,153,155.4z"/>
	
		<rect x="126" y="92.5" transform="matrix(0.9996 -2.798383e-02 2.798383e-02 0.9996 -2.5508 3.58)" class="st32" width="1.2" height="0.7"/>
	<polygon class="st32" points="123.9,92.6 123.9,93.4 125.1,93.3 125.1,92.6 	"/>
	<polygon class="st32" points="121.7,92.7 121.7,93.4 122.9,93.4 122.9,92.6 	"/>
	<polygon class="st32" points="132.5,92.4 132.5,93.1 133.7,93.1 133.7,92.4 	"/>
	<polygon class="st32" points="130.3,92.4 130.4,93.2 131.6,93.2 131.5,92.4 	"/>
	<polygon class="st32" points="128.2,92.5 128.2,93.3 129.4,93.2 129.4,92.5 	"/>
	<polygon class="st32" points="139,92.2 139,93 140.2,92.9 140.2,92.2 	"/>
	<polygon class="st32" points="136.8,92.3 136.8,93 138,93 138,92.2 	"/>
	<polygon class="st32" points="134.7,92.3 134.7,93.1 135.9,93.1 135.9,92.3 	"/>
	<polygon class="st33" points="139.5,94 140.1,92.5 139.5,91 143,92.4 	"/>
	<path class="st32" d="M402.3,66.4l-0.6-0.4c-0.2,0.3-0.5,0.7-0.7,1l0.6,0.5C401.8,67.1,402,66.8,402.3,66.4"/>
	<path class="st32" d="M403.3,64.3l-0.7-0.3c-0.1,0.4-0.3,0.7-0.5,1.1l0.7,0.4C403,65.1,403.2,64.7,403.3,64.3"/>
	<path class="st32" d="M403.8,62l-0.7,0c0,0.4-0.1,0.8-0.2,1.2l0.7,0.2C403.7,62.9,403.8,62.5,403.8,62"/>
	<polygon class="st32" points="397.4,71.2 396.9,70.6 395.9,71.4 396.3,72 	"/>
	<path class="st32" d="M399.1,69.8l-0.5-0.6c-0.3,0.3-0.6,0.5-1,0.8l0.5,0.6C398.5,70.3,398.8,70.1,399.1,69.8"/>
	<path class="st32" d="M400.8,68.2l-0.5-0.5c-0.3,0.3-0.6,0.6-0.9,0.9l0.5,0.5C400.2,68.8,400.5,68.5,400.8,68.2"/>
	<polygon class="st32" points="391.7,75.1 391.3,74.5 390.2,75.2 390.7,75.8 	"/>
	<rect x="392.2" y="73.5" transform="matrix(0.832 -0.5547 0.5547 0.832 25.0001 230.349)" class="st32" width="1.3" height="0.8"/>
	<polygon class="st32" points="395.5,72.6 395.1,72 394,72.7 394.4,73.3 	"/>
	<path class="st32" d="M386.4,79.3l-0.5-0.5c-0.3,0.3-0.6,0.7-0.9,1l0.6,0.4C385.8,79.9,386.1,79.5,386.4,79.3"/>
	<path class="st32" d="M388,77.7l-0.5-0.6c-0.3,0.3-0.7,0.6-1,0.8l0.5,0.6C387.4,78.3,387.7,78,388,77.7"/>
	<polygon class="st32" points="389.8,76.4 389.4,75.8 388.4,76.5 388.8,77.1 	"/>
	<polygon class="st33" points="384.2,78.9 385.4,80 387,79.9 384.4,82.7 	"/>
	<path class="st32" d="M386.7,151.6l-0.6,0.5c0.2,0.4,0.6,0.7,0.9,1l0.5-0.6C387.3,152.2,386.9,151.9,386.7,151.6"/>
	<path class="st32" d="M385.8,149.7l-0.7,0.2c0.1,0.4,0.3,0.8,0.5,1.2l0.7-0.3C386,150.5,385.9,150.1,385.8,149.7"/>
	<path class="st32" d="M385.5,147.6l-0.7,0c0,0.4,0,0.9,0.1,1.3l0.7-0.1C385.5,148.4,385.5,148,385.5,147.6"/>
	<polygon class="st32" points="392.4,154.1 392.3,154.9 393.6,155 393.6,154.3 	"/>
	<path class="st32" d="M390.3,153.7l-0.2,0.7c0.4,0.1,0.8,0.2,1.2,0.3l0.1-0.7C391.1,153.9,390.7,153.9,390.3,153.7"/>
	<path class="st32" d="M388.3,153l-0.4,0.7c0.4,0.2,0.8,0.4,1.2,0.5l0.3-0.7C389,153.3,388.7,153.2,388.3,153"/>
	<polygon class="st32" points="399,154.6 398.9,155.4 400.1,155.5 400.2,154.8 	"/>
	<polygon class="st32" points="396.8,154.5 396.8,155.2 398,155.3 398,154.5 	"/>
	<polygon class="st32" points="394.6,154.3 394.6,155.1 395.8,155.2 395.8,154.4 	"/>
	<path class="st32" d="M405.4,156.4L405,157c0.3,0.2,0.6,0.5,0.9,0.7l0.5-0.5C406.1,156.9,405.8,156.6,405.4,156.4"/>
	<path class="st32" d="M403.4,155.4l-0.2,0.7c0.4,0.1,0.7,0.3,1.1,0.4l0.3-0.7C404.2,155.7,403.8,155.6,403.4,155.4"/>
	<path class="st32" d="M401.2,154.9l-0.1,0.7c0.4,0.1,0.8,0.1,1.2,0.2l0.2-0.7C402,155,401.6,155,401.2,154.9"/>
	<path class="st32" d="M408.7,162.2l-0.7,0.1c0.1,0.4,0.1,0.8,0.1,1.2l0.8,0C408.7,163,408.8,162.6,408.7,162.2"/>
	<path class="st32" d="M408.2,160l-0.7,0.2c0.1,0.4,0.2,0.7,0.3,1.1l0.7-0.2C408.4,160.8,408.3,160.4,408.2,160"/>
	<path class="st32" d="M407.1,158l-0.6,0.5c0.2,0.3,0.4,0.6,0.6,1l0.7-0.3C407.6,158.7,407.4,158.3,407.1,158"/>
	<path class="st32" d="M408.8,167.6l-0.8,0c0,0.2,0,0.3,0,0.5l0,0c0,0,0,0,0,0.1c0,0,0,0.1,0.3,0.3c0.4,0.1,0.6-0.2,0.6-0.2
		c0.1-0.1,0-0.1,0-0.2l0,0l0,0v0l0-0.1c0,0,0,0,0-0.1c0.7-0.1-1.1-0.5-1,0c0,0.1,0,0.1,0,0.1l0,0v0v0v0l0,0l0,0.1l0,0.2l0,0.9l0.8,0
		l0-0.9l0-0.2l0-0.1v0v0l0,0v0l0,0l0,0c0.1,0.2-0.9,0-0.5,0c0-0.1,0,0,0,0l0,0.1v0v0c0,0,0,0,0,0c0,0,0,0,0-0.1c0,0,0.1-0.2,0.3-0.1
		c0.1,0.1,0.1,0.1,0.1,0.1c0,0.1,0,0.1,0,0.1l0,0L408.8,167.6z"/>
	
		<rect x="408" y="164.3" transform="matrix(0.9999 -1.070088e-02 1.070088e-02 0.9999 -1.745 4.3793)" class="st32" width="0.8" height="1.8"/>
	
		<rect x="408" y="161.1" transform="matrix(1 -9.358314e-03 9.358314e-03 1 -1.4981 3.8284)" class="st32" width="0.8" height="1.8"/>
	<polygon class="st33" points="407,168.8 408.5,169.4 410,168.8 408.5,172.3 	"/>
</g>
<text transform="matrix(1 0 0 1 151.8867 18.7021)" class="st8 st34">WheatComp Pipeline</text>
<g>
	<defs>
		<rect id="SVGID_17_" x="-53" y="-337.9" width="595.3" height="841.9"/>
	</defs>
	<clipPath id="SVGID_18_">
		<use xlink:href="#SVGID_17_"  style="overflow:visible;"/>
	</clipPath>
</g>
<g>
	<defs>
		<rect id="SVGID_19_" x="-53" y="-337.9" width="595.3" height="841.9"/>
	</defs>
	<clipPath id="SVGID_20_">
		<use xlink:href="#SVGID_19_"  style="overflow:visible;"/>
	</clipPath>
</g>
<g>
	<defs>
		<rect id="SVGID_21_" x="-53" y="-337.9" width="595.3" height="841.9"/>
	</defs>
	<clipPath id="SVGID_22_">
		<use xlink:href="#SVGID_21_"  style="overflow:visible;"/>
	</clipPath>
</g>
<g>
	<defs>
		<rect id="SVGID_23_" x="-53" y="-337.9" width="595.3" height="841.9"/>
	</defs>
	<clipPath id="SVGID_24_">
		<use xlink:href="#SVGID_23_"  style="overflow:visible;"/>
	</clipPath>
	<polygon class="st35" points="139.5,137.7 139.5,136.9 138.3,136.9 138.3,137.6 	"/>
	<path class="st35" d="M141.6,137.9l0.1-0.7c-0.4-0.1-0.8-0.1-1.2-0.2l-0.1,0.7C140.8,137.8,141.2,137.8,141.6,137.9"/>
	<path class="st35" d="M143.6,138.4l0.2-0.7c-0.4-0.1-0.8-0.3-1.2-0.3l-0.2,0.7C142.9,138.1,143.2,138.3,143.6,138.4"/>
	<polygon class="st35" points="133.1,137.9 133,137.1 131.8,137.3 131.9,138 	"/>
	<polygon class="st35" points="135.2,137.7 135.2,136.9 133.9,137 134,137.8 	"/>
	<polygon class="st35" points="137.3,137.6 137.3,136.8 136.1,136.9 136.1,137.6 	"/>
	<polygon class="st35" points="126.8,139.1 126.6,138.4 125.4,138.7 125.7,139.5 	"/>
	<polygon class="st35" points="128.9,138.6 128.7,137.9 127.5,138.1 127.7,138.9 	"/>
	<polygon class="st35" points="131,138.2 130.8,137.4 129.6,137.7 129.8,138.4 	"/>
	<polygon class="st35" points="120.8,141.4 120.5,140.7 119.4,141.2 119.8,141.9 	"/>
	<polygon class="st35" points="122.8,140.5 122.5,139.8 121.4,140.3 121.7,141 	"/>
	<polygon class="st35" points="124.8,139.8 124.5,139.1 123.4,139.5 123.6,140.2 	"/>
	<polygon class="st35" points="115.4,144.7 114.9,144.1 114,144.9 114.5,145.4 	"/>
	<polygon class="st35" points="117.1,143.5 116.7,142.8 115.7,143.5 116.1,144.1 	"/>
	<polygon class="st35" points="118.9,142.4 118.6,141.7 117.5,142.3 117.9,142.9 	"/>
	<polygon class="st36" points="113.8,143.7 114.3,145.2 115.7,145.9 112.1,147.1 	"/>
	<polygon class="st35" points="141.7,149.6 141,149.2 140.4,150.2 141,150.6 	"/>
	<path class="st35" d="M143,147.9l-0.6-0.5c-0.3,0.3-0.5,0.6-0.8,0.9l0.6,0.5C142.5,148.5,142.7,148.2,143,147.9"/>
	<path class="st35" d="M144.5,146.7l-0.3-0.7c-0.5,0.2-0.8,0.5-1.1,0.8l0.5,0.6C143.9,147,144.2,146.8,144.5,146.7"/>
	<polygon class="st35" points="138.2,155 137.6,154.6 137,155.7 137.6,156 	"/>
	<polygon class="st35" points="139.3,153.2 138.7,152.8 138.1,153.8 138.7,154.2 	"/>
	<polygon class="st35" points="140.5,151.4 139.8,151 139.2,152 139.8,152.4 	"/>
	<polygon class="st35" points="135.1,160.6 134.4,160.2 133.9,161.3 134.5,161.6 	"/>
	<polygon class="st35" points="136.1,158.7 135.5,158.4 134.9,159.4 135.5,159.8 	"/>
	<polygon class="st35" points="137.2,156.9 136.5,156.5 135.9,157.5 136.6,157.9 	"/>
	
		<rect x="130.9" y="166.2" transform="matrix(0.4615 -0.8871 0.8871 0.4615 -77.0147 206.3605)" class="st35" width="1.2" height="0.8"/>
	<polygon class="st35" points="133.1,164.4 132.4,164 131.9,165.1 132.5,165.4 	"/>
	<polygon class="st35" points="134.1,162.5 133.4,162.1 132.9,163.2 133.5,163.5 	"/>
	
		<rect x="127.9" y="172" transform="matrix(0.4552 -0.8904 0.8904 0.4552 -83.4116 208.347)" class="st35" width="1.2" height="0.7"/>
	
		<rect x="128.9" y="170.1" transform="matrix(0.4573 -0.8893 0.8893 0.4573 -81.2754 207.6735)" class="st35" width="1.2" height="0.7"/>
	
		<rect x="129.9" y="168.2" transform="matrix(0.4584 -0.8888 0.8888 0.4584 -79.1072 207.2613)" class="st35" width="1.2" height="0.8"/>
	
		<rect x="125" y="177.7" transform="matrix(0.4546 -0.8907 0.8907 0.4546 -90.0769 208.9963)" class="st35" width="1.2" height="0.8"/>
	
		<rect x="126" y="175.8" transform="matrix(0.4536 -0.8912 0.8912 0.4536 -87.8126 209.0723)" class="st35" width="1.2" height="0.7"/>
	
		<rect x="127" y="173.9" transform="matrix(0.4546 -0.8907 0.8907 0.4546 -85.6314 208.6501)" class="st35" width="1.2" height="0.8"/>
	
		<rect x="122.1" y="183.4" transform="matrix(0.4599 -0.888 0.888 0.4599 -96.9149 208.1861)" class="st35" width="1.2" height="0.7"/>
	
		<rect x="123.1" y="181.5" transform="matrix(0.4573 -0.8893 0.8893 0.4573 -94.6198 208.6804)" class="st35" width="1.2" height="0.8"/>
	
		<rect x="124" y="179.6" transform="matrix(0.4562 -0.8899 0.8899 0.4562 -92.3713 208.7771)" class="st35" width="1.2" height="0.8"/>
	<polygon class="st35" points="120.3,189.1 119.6,188.7 119.1,189.8 119.7,190.1 	"/>
	<polygon class="st35" points="121.3,187.2 120.6,186.9 120.1,187.9 120.7,188.3 	"/>
	<polygon class="st35" points="122.3,185.3 121.6,185 121.1,186 121.7,186.4 	"/>
	<path class="st35" d="M117.1,194.7l-0.6-0.4c-0.2,0.3-0.4,0.7-0.6,1l0.6,0.4C116.6,195.3,116.9,195,117.1,194.7"/>
	<polygon class="st35" points="118.2,192.8 117.5,192.5 116.9,193.5 117.6,193.9 	"/>
	<polygon class="st35" points="119.3,191 118.6,190.6 118,191.6 118.7,192 	"/>
	<polygon class="st36" points="115.6,194 116.2,195.5 117.7,196.1 114.2,197.6 	"/>
	<polygon class="st35" points="239.7,181.6 239.4,180.9 238.3,181.5 238.6,182.2 	"/>
	<polygon class="st35" points="241.7,180.4 241.3,179.8 240.2,180.4 240.6,181.1 	"/>
	<polygon class="st35" points="243.6,179.3 243.2,178.7 242.2,179.3 242.5,179.9 	"/>
	<polygon class="st35" points="233.9,184.9 233.5,184.2 232.5,184.9 232.8,185.5 	"/>
	<polygon class="st35" points="235.8,183.8 235.5,183.1 234.4,183.8 234.8,184.4 	"/>
	<polygon class="st35" points="237.8,182.7 237.4,182 236.3,182.6 236.7,183.3 	"/>
	<polygon class="st35" points="228.1,188.2 227.7,187.6 226.7,188.2 227,188.9 	"/>
	
		<rect x="228.7" y="186.7" transform="matrix(0.8667 -0.4987 0.4987 0.8667 -62.7679 139.3055)" class="st35" width="1.2" height="0.7"/>
	<polygon class="st35" points="232,186 231.6,185.4 230.5,186 230.9,186.6 	"/>
	<polygon class="st36" points="226.7,187 226.9,188.6 228.2,189.6 224.4,190.1 	"/>
	<path class="st35" d="M356.3,191.2l0.3-0.7c-0.4-0.2-0.7-0.4-1.1-0.6l-0.4,0.6C355.5,190.8,355.9,191,356.3,191.2"/>
	<path class="st35" d="M358.5,192l0.2-0.7c-0.4-0.1-0.8-0.2-1.1-0.4l-0.3,0.7C357.7,191.8,358.1,191.9,358.5,192"/>
	<path class="st35" d="M360.9,192.1l-0.1-0.7c-0.2,0.1-0.4,0.1-0.6,0.1c-0.2,0-0.4,0-0.6,0l0,0.7c0.2,0,0.4,0,0.7,0
		C360.4,192.1,360.7,192.1,360.9,192.1"/>
	<path class="st35" d="M350.9,186.9l0.5-0.5c-0.3-0.3-0.6-0.6-0.9-0.9L350,186C350.3,186.3,350.6,186.6,350.9,186.9"/>
	<path class="st35" d="M352.5,188.5l0.5-0.6c-0.3-0.3-0.6-0.6-0.9-0.8l-0.5,0.5C351.9,187.9,352.2,188.2,352.5,188.5"/>
	<path class="st35" d="M354.3,190l0.4-0.6c-0.3-0.2-0.7-0.5-1-0.8l-0.5,0.6C353.6,189.4,354,189.7,354.3,190"/>
	<polygon class="st35" points="346.3,181.7 346.9,181.3 346.2,180.3 345.6,180.7 	"/>
	<polygon class="st35" points="347.8,183.5 348.4,183 347.6,182.1 347,182.5 	"/>
	<polygon class="st35" points="349.3,185.2 349.8,184.7 349,183.8 348.4,184.3 	"/>
	<polygon class="st35" points="342.3,176.2 342.9,175.8 342.2,174.7 341.5,175.1 	"/>
	<polygon class="st35" points="343.6,178.1 344.2,177.6 343.5,176.6 342.8,177 	"/>
	<polygon class="st35" points="344.9,179.9 345.5,179.5 344.8,178.4 344.2,178.9 	"/>
	<rect x="338" y="169.1" transform="matrix(0.84 -0.5426 0.5426 0.84 -37.9503 210.8059)" class="st35" width="0.7" height="1.3"/>
	<polygon class="st35" points="339.7,172.4 340.3,172 339.6,170.9 339,171.3 	"/>
	<polygon class="st35" points="341,174.3 341.6,173.9 340.9,172.8 340.3,173.2 	"/>
	<polygon class="st35" points="334.8,164.7 335.4,164.3 334.8,163.2 334.1,163.6 	"/>
	
		<rect x="335.6" y="165.2" transform="matrix(0.8477 -0.5305 0.5305 0.8477 -36.8257 203.484)" class="st35" width="0.8" height="1.3"/>
	
		<rect x="336.8" y="167.2" transform="matrix(0.8442 -0.5361 0.5361 0.8442 -37.4125 206.9061)" class="st35" width="0.7" height="1.3"/>
	
		<rect x="330.8" y="157.4" transform="matrix(0.8562 -0.5166 0.5166 0.8562 -34.0427 193.8397)" class="st35" width="0.8" height="1.3"/>
	
		<rect x="332" y="159.4" transform="matrix(0.8543 -0.5198 0.5198 0.8543 -34.7531 196.0767)" class="st35" width="0.7" height="1.3"/>
	<polygon class="st35" points="333.6,162.7 334.2,162.3 333.6,161.2 332.9,161.6 	"/>
	
		<rect x="327.3" y="151.6" transform="matrix(0.8577 -0.5141 0.5141 0.8577 -31.6245 190.1077)" class="st35" width="0.7" height="1.3"/>
	
		<rect x="328.5" y="153.5" transform="matrix(0.8574 -0.5147 0.5147 0.8574 -32.4393 191.2396)" class="st35" width="0.7" height="1.3"/>
	
		<rect x="329.6" y="155.5" transform="matrix(0.8574 -0.5147 0.5147 0.8574 -33.2772 192.121)" class="st35" width="0.7" height="1.3"/>
	
		<rect x="323.8" y="145.7" transform="matrix(0.8549 -0.5188 0.5188 0.8549 -28.8756 189.3832)" class="st35" width="0.7" height="1.3"/>
	
		<rect x="324.9" y="147.6" transform="matrix(0.8568 -0.5157 0.5157 0.8568 -29.8681 188.9913)" class="st35" width="0.7" height="1.3"/>
	
		<rect x="326.1" y="149.6" transform="matrix(0.8577 -0.5141 0.5141 0.8577 -30.7785 189.2186)" class="st35" width="0.8" height="1.3"/>
	<polygon class="st35" points="320.5,141.2 321.2,140.8 320.5,139.7 319.9,140.1 	"/>
	
		<rect x="321.4" y="141.8" transform="matrix(0.8502 -0.5264 0.5264 0.8502 -26.7802 190.6922)" class="st35" width="0.8" height="1.3"/>
	
		<rect x="322.6" y="143.7" transform="matrix(0.8533 -0.5213 0.5213 0.8533 -27.8966 189.5266)" class="st35" width="0.8" height="1.3"/>
	<polygon class="st35" points="316.8,135.5 317.4,135 316.7,134 316.1,134.4 	"/>
	<polygon class="st35" points="318.1,137.4 318.7,136.9 318,135.9 317.4,136.3 	"/>
	<polygon class="st35" points="319.3,139.3 319.9,138.9 319.3,137.8 318.6,138.2 	"/>
	<polygon class="st35" points="312.8,129.9 313.4,129.5 312.6,128.5 312,129 	"/>
	<polygon class="st35" points="314.2,131.7 314.8,131.3 314,130.3 313.4,130.7 	"/>
	<polygon class="st35" points="315.5,133.6 316.1,133.1 315.4,132.1 314.8,132.5 	"/>
	<path class="st35" d="M308,125.2l0.4-0.6c-0.4-0.2-0.8-0.4-1.2-0.6l-0.2,0.7C307.3,124.8,307.6,125,308,125.2"/>
	<path class="st35" d="M309.7,126.6l0.5-0.6c-0.3-0.3-0.7-0.6-1-0.9l-0.5,0.6C309.1,126,309.4,126.3,309.7,126.6"/>
	<path class="st35" d="M311.3,128.2l0.6-0.5c-0.3-0.3-0.6-0.6-0.9-0.9l-0.5,0.5C310.7,127.6,311,127.9,311.3,128.2"/>
	<polygon class="st36" points="307.9,123 307,124.4 307.3,126 304.1,123.9 	"/>
</g>
<g>
	<defs>
		<rect id="SVGID_25_" x="-53" y="-337.9" width="595.3" height="841.9"/>
	</defs>
	<clipPath id="SVGID_26_">
		<use xlink:href="#SVGID_25_"  style="overflow:visible;"/>
	</clipPath>
</g>
<g>
	<defs>
		<rect id="SVGID_27_" x="-53" y="-337.9" width="595.3" height="841.9"/>
	</defs>
	<clipPath id="SVGID_28_">
		<use xlink:href="#SVGID_27_"  style="overflow:visible;"/>
	</clipPath>
</g>
<g>
	<defs>
		<rect id="SVGID_29_" x="-53" y="-337.9" width="595.3" height="841.9"/>
	</defs>
	<clipPath id="SVGID_30_">
		<use xlink:href="#SVGID_29_"  style="overflow:visible;"/>
	</clipPath>
</g>
<g>
	<defs>
		<rect id="SVGID_31_" x="-53" y="-337.9" width="595.3" height="841.9"/>
	</defs>
	<clipPath id="SVGID_32_">
		<use xlink:href="#SVGID_31_"  style="overflow:visible;"/>
	</clipPath>
</g>
<text transform="matrix(1 0 0 1 247.6777 126.3809)" class="st8 st9">EM</text>
<text transform="matrix(1 0 0 1 232.8071 140.0449)" class="st8 st9">algorithm</text>
<text transform="matrix(1 0 0 1 40.5229 211.4268)" class="st28 st8 st9">(SGRs)</text>
<g>
	<defs>
		<rect id="SVGID_33_" x="-53" y="-337.9" width="595.3" height="841.9"/>
	</defs>
	<clipPath id="SVGID_34_">
		<use xlink:href="#SVGID_33_"  style="overflow:visible;"/>
	</clipPath>
	<path class="st37" d="M292.6,185.8c3.4,0,5.1-0.8,6-2.4c0.7-1.2,1.3-2.5,2.3-3.9c1.7-2.5,5-11.7,8.4-9.5c0.9,0.5,1.4,1.5,1.9,2.5
		c1,1.9,2.1,3.8,3.1,5.8c0.9,1.6,1.7,3.3,3,4.5c1.7,1.7,3.9,2.5,6.1,2.8c1.2,0.2,2.4,0.2,3.6,0.2"/>
</g>
<text transform="matrix(1 0 0 1 240.0654 200.5488)" class="st8 st9">Mixture distribution</text>
<g>
	<defs>
		<rect id="SVGID_35_" x="-53" y="-337.9" width="595.3" height="841.9"/>
	</defs>
	<clipPath id="SVGID_36_">
		<use xlink:href="#SVGID_35_"  style="overflow:visible;"/>
	</clipPath>
</g>
<g>
	<defs>
		<rect id="SVGID_37_" x="-53" y="-337.9" width="595.3" height="841.9"/>
	</defs>
	<clipPath id="SVGID_38_">
		<use xlink:href="#SVGID_37_"  style="overflow:visible;"/>
	</clipPath>
</g>
</svg>
